<?xml version="1.0" encoding="utf-8"?>
<!-- Generator: Adobe Illustrator 27.6.1, SVG Export Plug-In . SVG Version: 6.00 Build 0)  -->
<svg version="1.1" id="Calque_1" xmlns="http://www.w3.org/2000/svg" xmlns:xlink="http://www.w3.org/1999/xlink" x="0px" y="0px"
	 viewBox="0 0 439.41 430" style="enable-background:new 0 0 439.41 430;" xml:space="preserve">
<style type="text/css">
	.st0{fill:#ffffff;}
	.st1{fill:#EC671B;}
</style>
<g>
	<path class="st0" d="M127,293H45c-9.93,0-18,8.07-18,18v82c0,9.93,8.07,18,18,18h82c9.93,0,18-8.07,18-18v-82
		C145,301.07,136.93,293,127,293z"/>
	<path class="st0" d="M263,293h-82c-9.93,0-18,8.07-18,18v82c0,9.93,8.07,18,18,18h82c9.93,0,18-8.07,18-18v-82
		C281,301.07,272.93,293,263,293z"/>
	<path class="st0" d="M317,293c-9.93,0-18,8.07-18,18v82c0,9.93,8.07,18,18,18h82c9.93,0,18-8.07,18-18v-82c0-9.93-8.07-18-18-18
		H317z"/>
	<path class="st0" d="M127,275c9.93,0,18-8.07,18-18v-82c0-9.93-8.07-18-18-18H45c-9.93,0-18,8.07-18,18v82c0,9.93,8.07,18,18,18
		H127z"/>
	<path class="st1" d="M163,175v82c0,9.93,8.07,18,18,18h82c9.93,0,18-8.07,18-18v-82c0-9.93-8.07-18-18-18h-82
		C171.07,157,163,165.07,163,175z"/>
	<path class="st0" d="M317,157c-9.93,0-18,8.07-18,18v82c0,9.93,8.07,18,18,18h82c9.93,0,18-8.07,18-18v-82c0-9.93-8.07-18-18-18
		H317z"/>
	<path class="st0" d="M127,139c9.93,0,18-8.07,18-18V39c0-9.93-8.07-18-18-18H45c-9.93,0-18,8.07-18,18v82c0,9.93,8.07,18,18,18H127
		z"/>
	<path class="st0" d="M181,139h82c9.93,0,18-8.07,18-18V39c0-9.93-8.07-18-18-18h-82c-9.93,0-18,8.07-18,18v82
		C163,130.93,171.07,139,181,139z"/>
	<path class="st0" d="M399,21h-82c-9.93,0-18,8.07-18,18v82c0,9.93,8.07,18,18,18h82c9.93,0,18-8.07,18-18V39
		C417,29.07,408.93,21,399,21z"/>
</g>
</svg>
